<?xml version="1.0" encoding="UTF-8"?>
<svg id="Layer_2" data-name="Layer 2" xmlns="http://www.w3.org/2000/svg" viewBox="0 0 27.38 6.88">
  <g id="Layer_1-2" data-name="Layer 1">
    <g>
      <path d="M5.86,4.82c0,.18.04.25.2.29.32.07.52.49.47.88s-.32.77-1.1.77c-.48,0-.9-.19-1.16-.54-.37.36-.94.58-1.78.58-1.52,0-2.49-.89-2.49-2.4C0,2.57,1.27,1.6,2.95,1.6c1.85,0,2.91,1.19,2.91,2.69v.54ZM2.95,3.16c-.49,0-1.02.29-1.02,1.07,0,.71.53,1,1.01,1s1.02-.3,1.02-1c0-.78-.53-1.07-1.01-1.07Z"/>
      <path d="M6.89,4.3c0-2.3,1.19-2.7,2.85-2.7.67,0,.9.48.9.96s-.23.96-.9.96c-.82,0-.89.47-.89.89v1.46c0,.59-.37.89-.98.89s-.98-.29-.98-.89v-1.57Z"/>
      <path d="M16.66,4.16c0,1.5-1.07,2.71-2.94,2.71-1.69,0-2.96-.9-2.96-2.58s.97-2.7,2.48-2.7c.6,0,1.08.12,1.44.36V.88c0-.58.49-.88.98-.88s1,.3,1,.88v3.29ZM13.73,3.19c-.43,0-.92.28-.92,1.03s.49,1.02.92,1.02.92-.26.92-1.02-.49-1.03-.92-1.03Z"/>
      <path d="M23.13,4.82c0,.18.04.25.2.29.32.07.52.49.47.88s-.32.77-1.1.77c-.48,0-.9-.19-1.16-.54-.37.36-.94.58-1.78.58-1.52,0-2.49-.89-2.49-2.4,0-1.82,1.27-2.79,2.95-2.79,1.85,0,2.91,1.19,2.91,2.69v.54ZM20.22,3.16c-.49,0-1.02.29-1.02,1.07,0,.71.53,1,1.01,1s1.02-.3,1.02-1c0-.78-.53-1.07-1.01-1.07Z"/>
      <path d="M24.04.97c0-.58.46-.86.92-.86s.94.29.94.86v.74h.41c.62,0,.95.46.95.91s-.31.91-.95.91h-.41v.74c0,.35.18.65.68.65.56,0,.8.46.8.91s-.26.91-.91.91c-2.11,0-2.43-1.13-2.43-2.47V.97Z"/>
    </g>
  </g>
</svg>